<?xml version="1.0" encoding="utf-8"?>
<!-- Generator: Adobe Illustrator 21.0.2, SVG Export Plug-In . SVG Version: 6.00 Build 0)  --> <!DOCTYPE svg PUBLIC "-//W3C//DTD SVG 1.1//EN" "http://www.w3.org/Graphics/SVG/1.1/DTD/svg11.dtd"> <svg version="1.1" id="Layer_1" xmlns="http://www.w3.org/2000/svg" xmlns:xlink="http://www.w3.org/1999/xlink" x="0px" y="0px" fill="#ffffff"
	 viewBox="0 0 17.5 27" style="enable-background:new 0 0 17.5 27;" xml:space="preserve">
<path d="M8.6,27c5.3,0,8.2-3,8.2-6c0-2.4-0.7-3.9-2.9-5.4c-0.8-0.5-2.2-1.8-2.2-2.6c0-0.9,0.3-1.3,1.6-2.4c1.4-1.1,2.4-2.6,2.4-4.4
	c0-2.1-0.9-4.2-2.7-4.8h2.7L17.5,0c0,0-6.3,0-8.4,0C5.3,0,1.8,2.8,1.8,6.1c0,3.4,2.6,6.1,6.4,6.1c0.3,0,0.5,0,0.8,0
	c-0.2,0.5-0.4,1-0.4,1.6c0,0.9,0.5,1.7,1.1,2.3c-0.5,0-0.9,0-1.5,0c-4.7,0-8.2,3-8.2,6C0,25.1,3.9,27,8.6,27z M9.4,11.4
	C7.2,11.3,5.2,9,4.8,6.1c-0.4-2.8,1.1-5,3.2-4.9s4.2,2.3,4.6,5.2C13,9.2,11.6,11.4,9.4,11.4z M9.1,16.9c0.8,0,1.4,0.1,2.1,0.3
	c1.7,1.2,3,1.9,3.3,3.3c0.1,0.3,0.1,0.6,0.1,0.9c0,2.4-1.6,4.4-6.1,4.4c-3.2,0-5.5-2-5.5-4.5C3,18.8,5.9,16.8,9.1,16.9z"/>
</svg>
